<?xml version="1.0" encoding="UTF-8"?>
<!DOCTYPE svg PUBLIC "-//W3C//DTD SVG 1.1//EN" "http://www.w3.org/Graphics/SVG/1.1/DTD/svg11.dtd">
<!-- Creator: CorelDRAW 2020 (64-Bit) -->
<svg xmlns="http://www.w3.org/2000/svg" xml:space="preserve" width="20.9822mm" height="24.735mm" version="1.1" style="shape-rendering:geometricPrecision; text-rendering:geometricPrecision; image-rendering:optimizeQuality; fill-rule:evenodd; clip-rule:evenodd"
viewBox="0 0 333.55 393.21"
 xmlns:xlink="http://www.w3.org/1999/xlink"
 xmlns:xodm="http://www.corel.com/coreldraw/odm/2003">
 <defs>
  <style type="text/css">
   <![CDATA[
    .fil0 {fill:#F4543C}
   ]]>
  </style>
 </defs>
 <g id="Capa_x0020_1">
  <metadata id="CorelCorpID_0Corel-Layer"/>
  <path id="path0" class="fil0" d="M1.23 0.7c-1.16,0.68 -1.23,6.67 -1.23,110.25 0,115.67 -0.13,111.21 3.15,111.21 3.23,0 3.15,1.56 3.15,-60.95 0,-58.42 0.03,-59.33 1.47,-63.13 14.56,-38.32 52.41,-57.08 94.92,-47.03 19.94,4.71 37.75,20.64 44.14,39.49 3.29,9.68 3.38,10.77 3.69,43l0.3 30.91 -3.01 0.64c-7.55,1.6 -8.45,12.07 -1.34,15.69 1.51,0.77 2.91,1.67 3.12,2 0.34,0.55 -10.56,11.56 -13.98,14.14 -3.26,2.45 -11.05,7.31 -11.54,7.19 -0.19,-0.04 -1.3,0.5 -2.45,1.22 -1.16,0.71 -3.84,1.96 -5.96,2.77 -2.12,0.82 -4.48,1.75 -5.26,2.09 -5.73,2.5 -18.55,4.86 -29.42,5.42 -8.9,0.45 -10.19,0.88 -10.19,3.34 0,2.65 1.33,3.21 7.67,3.2 25.37,-0.03 49.76,-9.13 67.33,-25.14l4.55 -4.15 0.18 71.86c0.18,75.6 0.03,80.29 -2.98,88.59 -0.62,1.7 -1.21,3.41 -1.31,3.79 -1.74,6.71 -9.83,18.83 -18.14,27.19 -6.02,6.05 -6.34,8.91 -0.98,8.91 4.35,0 19.18,-19.16 24.15,-31.2 5.7,-13.81 5.28,-6.89 5.55,-93.14l0.24 -77.02 4.15 4.19c11.15,11.25 31.01,21.18 48.73,24.35 10.5,1.88 24.58,2.26 26.29,0.72 3.06,-2.77 0.62,-5.26 -5.17,-5.26 -9.82,0 -25.6,-2.66 -33.39,-5.63 -2.12,-0.81 -5.06,-1.92 -6.55,-2.47 -8.71,-3.22 -21.25,-11.94 -29.01,-20.18l-4.36 -4.63 3.15 -1.85c8.12,-4.76 6.43,-16.41 -2.4,-16.41 -1.35,0 -1.39,-0.69 -1.68,-31.72 -0.32,-34.9 -0.53,-36.88 -4.93,-47.49 -4.96,-11.95 -14.86,-24.67 -23.08,-29.64 -1.26,-0.77 -2.45,-1.63 -2.65,-1.93 -0.19,-0.3 -2.94,-1.81 -6.12,-3.36 -40.19,-19.62 -94.91,-4.03 -112.16,31.99 -1.2,2.5 -1.25,1.32 -1.42,-39.06 -0.13,-29.34 -0.41,-41.93 -0.96,-42.59 -0.92,-1.11 -2.58,-1.18 -4.29,-0.19zm281.63 5.18c-2.7,1.7 -7.11,4.39 -9.81,5.97 -5.51,3.22 -6.3,3.71 -18.58,11.25 -4.82,2.96 -11.21,6.88 -14.2,8.71 -4.61,2.83 -5.43,3.62 -5.43,5.22 0,5.38 3.02,4.74 16.67,-3.5 15.74,-9.5 30.2,-18.26 33.35,-20.2l2.58 -1.59 -0.05 28.17c-0.05,30.13 -0.05,30.14 3.47,30.14 3.62,0 3.56,0.53 3.56,-33.04l0 -31.36 -2.04 -1.45c-2.85,-2.03 -3.95,-1.83 -9.53,1.68zm-203.99 131.26c-10.28,2.49 -8.67,17.72 1.88,17.72 6.27,0 8.99,-2.75 8.99,-9.09 0,-4.85 -5.12,-9.93 -9.12,-9.05 -0.19,0.04 -0.98,0.23 -1.75,0.42zm161.93 -0.01c-7.29,1.81 -9.65,12.53 -3.58,16.28 3.93,2.43 9.11,2.03 12.07,-0.93 6.28,-6.28 0.1,-17.47 -8.48,-15.35zm79.49 34.69c-0.92,0.3 -6.88,1.66 -13.24,3.02 -38.55,8.22 -35.05,7.17 -35.05,10.48 0,4.27 0.81,4.36 14.2,1.51 6.65,-1.42 12.56,-2.71 13.14,-2.87 0.58,-0.16 6.57,-1.44 13.32,-2.84 12.51,-2.59 14.72,-3.53 14.72,-6.27 0,-3.1 -2.98,-4.37 -7.09,-3.02zm-2.38 30.71c-6.56,1.45 -16.34,3.61 -21.73,4.8 -5.4,1.19 -11.18,2.38 -12.84,2.64 -3.63,0.56 -5.03,1.8 -5.03,4.44 0,2.62 1.54,3.79 4.37,3.32 2.87,-0.48 24.72,-5.24 24.72,-5.39 0,-0.06 0.63,-0.21 1.4,-0.33 4.03,-0.65 21.95,-4.71 23.31,-5.27 2.72,-1.14 1.27,-7.29 -1.63,-6.92 -0.36,0.05 -6.01,1.27 -12.56,2.72z"/>
 </g>
</svg>
