<?xml version="1.0" encoding="UTF-8"?>
<!DOCTYPE svg PUBLIC "-//W3C//DTD SVG 1.1//EN" "http://www.w3.org/Graphics/SVG/1.1/DTD/svg11.dtd">
<!-- Creator: CorelDRAW 2020 (64-Bit) -->
<svg xmlns="http://www.w3.org/2000/svg" xml:space="preserve" width="33.7026mm" height="33.7026mm" version="1.1" style="shape-rendering:geometricPrecision; text-rendering:geometricPrecision; image-rendering:optimizeQuality; fill-rule:evenodd; clip-rule:evenodd"
viewBox="0 0 3210.58 3210.58"
 xmlns:xlink="http://www.w3.org/1999/xlink"
 xmlns:xodm="http://www.corel.com/coreldraw/odm/2003">
 <defs>
  <style type="text/css">
   <![CDATA[
    .fil1 {fill:#FEFEFE}
    .fil0 {fill:#F4543C}
   ]]>
  </style>
 </defs>
 <g id="Capa_x0020_1">
  <metadata id="CorelCorpID_0Corel-Layer"/>
  <g id="_840546016">
   <circle class="fil0" cx="1605.29" cy="1605.29" r="1605.29"/>
   <path id="path0" class="fil1" d="M2584 1779.82c39.28,-8.69 73.15,-16 75.3,-16.28 17.41,-2.24 26.08,34.61 9.77,41.47 -8.14,3.4 -115.51,27.69 -139.68,31.6 -4.61,0.73 -8.39,1.64 -8.39,1.99 0,0.89 -130.97,29.45 -148.15,32.31 -16.97,2.83 -26.19,-4.18 -26.19,-19.88 0,-15.83 8.41,-23.26 30.17,-26.62 9.97,-1.54 44.61,-8.65 76.94,-15.8 32.34,-7.15 90.95,-20.11 130.23,-28.79zm14.24 -184.02c24.63,-8.09 42.48,-0.48 42.48,18.1 0,16.39 -13.26,22.02 -88.22,37.55 -40.43,8.39 -76.37,16.06 -79.82,17.04 -3.48,0.95 -38.9,8.7 -78.74,17.19 -80.25,17.09 -85.09,16.59 -85.09,-9.02 0,-19.83 -21,-13.56 210.03,-62.79 38.13,-8.12 73.85,-16.25 79.36,-18.07zm-476.34 -207.86c51.41,-12.73 88.47,54.32 50.83,91.98 -17.74,17.74 -48.75,20.14 -72.31,5.56 -36.36,-22.48 -22.22,-86.7 21.48,-97.54zm-970.38 0.05c4.64,-1.13 9.35,-2.27 10.51,-2.51 23.92,-5.27 54.62,25.18 54.62,54.24 0,38 -16.31,54.46 -53.89,54.46 -63.19,0 -72.82,-91.24 -11.24,-106.19zm1222.42 -786.61c33.42,-21.04 40.05,-22.22 57.11,-10.08l12.2 8.7 0 187.9c0,201.16 0.35,198 -21.32,198 -21.05,0 -21.07,-0.1 -20.77,-180.64l0.28 -168.82 -15.48 9.55c-18.85,11.64 -105.5,64.17 -199.85,121.08 -81.81,49.37 -99.91,53.18 -99.91,20.97 0,-9.6 4.92,-14.34 32.54,-31.27 17.92,-10.96 56.2,-34.48 85.07,-52.22 73.54,-45.17 78.33,-48.09 111.32,-67.4 16.19,-9.48 42.65,-25.56 58.81,-35.77zm-1687.65 -31.03c10.26,-5.97 20.2,-5.54 25.71,1.11 3.31,3.95 4.99,79.37 5.77,255.2 1.03,241.99 1.31,249.07 8.5,234.08 103.41,-215.81 431.27,-309.29 672.13,-191.69 19.03,9.31 35.51,18.35 36.68,20.14 1.15,1.76 8.29,6.95 15.85,11.55 49.28,29.79 108.61,105.99 138.32,177.62 26.37,63.54 27.6,75.42 29.52,284.56 1.71,185.98 1.93,190.1 10.05,190.1 52.9,0 63.08,69.84 14.39,98.37l-18.88 11.07 26.14 27.75c46.47,49.35 121.65,101.63 173.82,120.91 8.9,3.28 26.54,9.93 39.25,14.79 46.68,17.79 141.23,33.75 200.1,33.75 34.68,0 49.33,14.89 30.98,31.5 -10.26,9.28 -94.62,6.98 -157.55,-4.29 -106.22,-19.02 -225.23,-78.52 -292.04,-145.93l-24.85 -25.1 -1.44 461.55c-1.61,516.85 0.86,475.37 -33.28,558.13 -29.74,72.16 -118.61,186.95 -144.69,186.95 -32.11,0 -30.23,-17.17 5.87,-53.41 49.83,-50.08 98.3,-122.7 108.73,-162.93 0.61,-2.31 4.13,-12.55 7.84,-22.73 18.05,-49.73 18.98,-77.86 17.87,-530.87l-1.09 -430.62 -27.29 24.88c-105.3,95.93 -251.47,150.5 -403.48,150.65 -38.03,0.02 -45.99,-3.31 -45.99,-19.2 0,-14.75 7.71,-17.29 61.04,-20.01 65.1,-3.32 141.95,-17.49 176.28,-32.47 4.64,-2.02 18.8,-7.64 31.5,-12.53 12.73,-4.87 28.79,-12.33 35.71,-16.6 6.94,-4.27 13.54,-7.54 14.7,-7.29 2.94,0.68 49.6,-28.41 69.13,-43.11 20.52,-15.42 85.8,-81.43 83.78,-84.71 -1.24,-1.99 -9.65,-7.38 -18.67,-12 -42.57,-21.72 -37.21,-84.46 8.04,-94.03l18.01 -3.81 -1.79 -185.23c-1.89,-193.16 -2.44,-199.66 -22.13,-257.68 -38.3,-112.94 -145.03,-208.4 -264.5,-236.65 -254.74,-60.22 -481.59,52.16 -568.82,281.81 -8.65,22.79 -8.77,28.24 -8.8,378.3 0,374.59 0.49,365.24 -18.9,365.24 -19.66,0 -18.9,26.75 -18.9,-666.43 0,-620.69 0.4,-656.61 7.35,-660.67z"/>
  </g>
 </g>
</svg>
