<svg id="svg" version="1.1" xmlns="http://www.w3.org/2000/svg" xmlns:xlink="http://www.w3.org/1999/xlink" width="400" height="400" viewBox="0, 0, 400,400"><g id="svgg"><path id="path0" d="M202.113 115.074 C 201.946 115.201,201.777 115.517,201.739 115.777 C 198.985 134.356,199.062 133.333,200.417 133.333 C 201.226 133.333,201.415 132.942,201.746 130.583 C 202.496 125.244,202.748 124.486,204.083 123.556 C 205.695 122.434,208.189 123.147,209.125 124.996 C 209.619 125.972,209.609 126.913,209.065 130.526 C 208.490 134.351,208.542 134.667,209.755 134.667 C 210.540 134.667,210.667 134.401,211.006 132.047 C 211.175 130.875,211.392 129.467,211.489 128.917 C 212.101 125.438,210.971 122.639,208.474 121.449 C 207.483 120.977,204.365 120.929,203.552 121.374 L 203.021 121.664 203.109 121.040 C 203.158 120.697,203.304 119.870,203.435 119.203 C 204.161 115.485,203.655 113.905,202.113 115.074 M223.217 126.634 C 218.652 128.263,216.986 134.748,220.308 137.952 C 221.756 139.348,223.679 139.883,226.324 139.623 C 226.662 139.590,226.750 139.676,226.846 140.132 C 227.015 140.939,227.446 141.333,228.159 141.333 C 229.095 141.333,229.481 140.566,228.998 139.663 C 228.867 139.418,228.980 139.005,229.510 137.799 C 229.885 136.947,230.454 135.614,230.774 134.836 C 231.095 134.058,231.415 133.346,231.485 133.253 C 232.969 131.287,232.660 128.368,231.077 129.405 C 230.642 129.691,230.333 129.634,230.333 129.270 C 230.333 128.850,228.887 127.570,227.784 127.014 C 226.348 126.289,224.590 126.143,223.217 126.634 M226.833 128.925 C 229.095 130.062,229.699 132.303,228.422 134.822 C 226.122 139.361,219.804 137.686,220.812 132.805 C 221.538 129.294,224.180 127.591,226.833 128.925 M241.423 136.160 C 241.208 136.397,241.155 136.637,241.229 137.035 C 241.349 137.679,241.325 137.719,239.250 140.422 C 238.425 141.496,237.529 142.685,237.258 143.063 C 236.987 143.441,236.481 144.113,236.133 144.557 C 235.432 145.450,235.322 146.120,235.805 146.558 C 236.231 146.943,236.946 146.904,237.293 146.476 C 237.453 146.280,237.773 145.886,238.005 145.601 C 238.237 145.316,238.646 144.783,238.913 144.417 C 239.180 144.050,239.441 143.712,239.491 143.667 C 239.542 143.621,240.102 142.891,240.737 142.045 C 242.334 139.915,244.195 139.502,246.316 140.807 C 247.634 141.618,248.500 141.387,248.500 140.224 C 248.500 139.175,246.246 138.008,244.208 138.002 C 243.550 138.000,243.499 137.967,243.487 137.542 C 243.466 136.794,243.375 136.489,243.070 136.152 C 242.689 135.731,241.807 135.735,241.423 136.160 M252.003 147.757 C 247.977 148.886,245.582 153.630,247.314 157.044 C 248.113 158.620,250.238 160.333,251.393 160.333 C 251.974 160.333,252.153 160.515,251.990 160.942 C 251.579 162.023,252.046 163.000,252.974 163.000 C 253.555 163.000,254.000 162.542,254.000 161.945 C 254.000 161.450,254.183 161.266,257.083 158.833 C 258.742 157.442,259.623 156.697,261.069 155.466 C 261.996 154.678,261.618 153.422,260.487 153.530 L 259.873 153.588 259.784 152.613 C 259.473 149.182,255.580 146.753,252.003 147.757 M254.728 149.679 C 257.780 150.447,258.636 154.133,256.329 156.572 C 253.880 159.161,250.602 158.859,249.226 155.917 C 248.016 153.329,250.563 149.766,253.801 149.517 C 253.921 149.508,254.338 149.580,254.728 149.679 M270.428 162.254 C 269.579 163.040,270.028 164.333,271.150 164.333 C 271.812 164.333,272.206 164.038,272.402 163.394 C 272.733 162.305,271.280 161.465,270.428 162.254 M265.250 165.109 C 264.333 165.612,263.096 166.287,262.500 166.610 C 261.904 166.932,260.817 167.528,260.083 167.934 C 256.732 169.790,256.722 169.793,254.008 169.628 C 253.046 169.570,252.634 170.116,252.990 170.975 C 253.108 171.261,253.272 171.455,253.353 171.405 C 253.434 171.355,253.500 171.388,253.500 171.478 C 253.500 172.174,256.758 172.053,258.250 171.302 C 261.909 169.461,268.034 166.080,268.170 165.827 C 269.057 164.170,267.609 163.814,265.250 165.109 M127.613 165.708 L 127.023 166.250 127.792 167.417 C 128.215 168.058,129.466 169.490,130.572 170.599 C 132.473 172.504,133.333 173.231,135.437 174.715 C 135.992 175.107,136.333 175.469,136.333 175.668 C 136.333 176.157,136.693 175.921,137.221 175.086 C 137.786 174.193,137.792 174.205,136.284 173.231 C 135.623 172.806,135.046 172.407,135.000 172.345 C 134.954 172.283,134.622 172.011,134.262 171.741 C 132.291 170.263,130.029 167.932,129.055 166.375 C 128.168 164.958,128.343 165.039,127.613 165.708 M160.625 169.180 C 160.349 169.341,160.333 170.766,160.333 195.392 C 160.333 222.894,160.303 221.833,161.083 221.833 C 161.852 221.833,161.833 222.204,161.833 207.342 C 161.834 193.453,161.839 193.237,162.182 192.333 C 165.643 183.221,174.643 178.763,184.750 181.152 C 189.490 182.273,193.724 186.060,195.244 190.541 C 196.025 192.843,196.047 193.101,196.122 200.765 L 196.193 208.114 195.478 208.265 C 193.683 208.645,193.470 211.134,195.159 211.996 C 195.517 212.179,195.851 212.393,195.900 212.472 C 195.980 212.602,193.390 215.221,192.576 215.833 C 191.801 216.416,189.950 217.570,189.833 217.543 C 189.787 217.533,189.525 217.663,189.250 217.832 C 188.975 218.002,188.338 218.298,187.833 218.491 C 187.329 218.685,186.767 218.908,186.583 218.988 C 185.221 219.582,182.172 220.144,179.589 220.276 C 177.473 220.384,177.167 220.485,177.167 221.070 C 177.167 221.701,177.483 221.833,178.992 221.832 C 185.023 221.826,190.822 219.661,195.000 215.855 L 196.083 214.868 196.126 231.953 C 196.170 249.926,196.133 251.042,195.417 253.015 C 195.270 253.419,195.130 253.825,195.106 253.917 C 194.692 255.513,192.769 258.394,190.792 260.381 C 189.360 261.819,189.285 262.500,190.559 262.500 C 191.594 262.500,195.120 257.946,196.300 255.083 C 197.654 251.799,197.556 253.445,197.620 232.939 L 197.677 214.627 198.663 215.623 C 201.314 218.298,206.036 220.658,210.250 221.413 C 212.747 221.860,216.094 221.951,216.501 221.583 C 217.229 220.924,216.648 220.333,215.272 220.333 C 212.936 220.333,209.185 219.700,207.333 218.994 C 206.829 218.801,206.129 218.537,205.776 218.407 C 203.706 217.642,200.723 215.568,198.879 213.610 L 197.842 212.509 198.591 212.070 C 200.523 210.938,200.119 208.167,198.020 208.167 C 197.698 208.167,197.689 208.004,197.621 200.625 C 197.545 192.327,197.496 191.856,196.450 189.335 C 195.271 186.493,192.917 183.470,190.962 182.288 C 190.662 182.106,190.379 181.900,190.333 181.830 C 190.287 181.759,189.633 181.400,188.878 181.031 C 179.322 176.365,166.314 180.074,162.211 188.636 C 161.926 189.231,161.915 188.950,161.874 179.349 C 161.843 172.373,161.776 169.381,161.645 169.224 C 161.426 168.960,161.032 168.943,160.625 169.180 M227.583 170.411 C 226.942 170.816,225.892 171.454,225.250 171.830 C 223.941 172.596,223.751 172.712,220.833 174.504 C 219.688 175.208,218.169 176.141,217.458 176.576 C 216.362 177.248,216.167 177.436,216.167 177.817 C 216.167 179.095,216.885 178.944,220.131 176.985 C 223.874 174.727,227.312 172.643,228.060 172.181 L 228.674 171.802 228.663 178.500 C 228.651 185.663,228.652 185.667,229.487 185.667 C 230.347 185.667,230.333 185.792,230.333 177.811 L 230.333 170.356 229.849 170.011 C 229.172 169.529,228.909 169.576,227.583 170.411 M270.667 175.607 C 265.575 177.063,264.688 177.429,263.517 178.551 C 261.547 180.438,261.411 183.531,263.183 186.108 C 263.589 186.698,263.722 187.057,263.687 187.468 C 263.572 188.801,264.074 188.883,267.028 188.010 C 268.250 187.648,269.925 187.156,270.750 186.915 C 271.575 186.674,272.362 186.433,272.500 186.380 C 272.637 186.327,272.900 186.257,273.083 186.225 C 273.267 186.192,273.567 186.094,273.750 186.007 C 273.933 185.919,274.393 185.769,274.772 185.672 C 275.629 185.455,275.871 185.174,275.803 184.474 C 275.700 183.407,275.208 183.343,272.731 184.073 C 271.550 184.420,269.608 184.990,268.417 185.339 L 266.250 185.973 265.702 185.556 C 264.459 184.612,263.783 182.886,264.137 181.562 C 264.542 180.049,265.503 179.353,268.333 178.524 C 273.468 177.020,273.333 177.082,273.333 176.239 C 273.333 175.138,272.772 175.004,270.667 175.607 M121.167 180.215 C 121.167 180.540,121.125 180.914,121.075 181.045 C 120.883 181.545,128.903 182.029,132.875 181.757 L 134.667 181.635 134.667 180.859 L 134.667 180.083 130.625 180.137 C 127.062 180.185,124.660 180.070,121.958 179.725 L 121.167 179.624 121.167 180.215 M127.276 188.525 C 127.128 189.382,126.967 190.383,126.919 190.750 C 126.794 191.698,125.989 197.302,125.877 198.000 C 125.825 198.321,125.776 198.752,125.766 198.958 C 125.745 199.445,125.695 199.437,124.551 198.766 C 121.560 197.013,119.000 192.640,119.000 189.285 C 119.000 189.021,118.944 188.831,118.875 188.862 C 118.806 188.893,118.476 189.024,118.140 189.154 C 117.428 189.429,117.428 189.472,118.114 192.167 C 119.223 196.523,121.400 199.080,125.828 201.230 C 126.391 201.503,126.415 201.501,126.681 201.147 C 126.977 200.755,127.004 200.604,128.010 193.583 C 128.378 191.017,128.707 188.729,128.740 188.500 C 128.774 188.271,128.855 187.877,128.919 187.625 C 129.008 187.278,128.976 187.167,128.789 187.167 C 128.653 187.167,128.317 187.122,128.043 187.067 L 127.545 186.967 127.276 188.525 M132.109 189.624 C 132.061 189.704,131.901 190.664,131.754 191.759 C 131.608 192.854,131.418 194.125,131.332 194.583 C 131.246 195.042,131.138 195.717,131.092 196.083 C 131.046 196.450,130.893 197.532,130.751 198.488 C 130.466 200.409,130.494 200.493,131.427 200.497 L 131.936 200.500 132.315 197.792 C 132.522 196.302,132.866 193.921,133.077 192.500 C 133.289 191.079,133.414 189.868,133.356 189.809 C 133.168 189.619,132.201 189.476,132.109 189.624 M275.750 196.007 C 271.992 196.172,268.225 196.337,267.381 196.373 C 265.670 196.446,265.167 196.700,265.167 197.494 C 265.167 198.451,265.443 198.575,267.474 198.525 L 269.318 198.479 270.071 199.173 L 270.823 199.866 269.213 201.641 C 268.327 202.618,267.321 203.717,266.977 204.083 C 265.705 205.438,265.500 205.688,265.502 205.884 C 265.518 207.252,266.759 207.502,267.812 206.350 C 268.030 206.112,268.876 205.192,269.693 204.307 C 270.509 203.422,271.446 202.392,271.773 202.018 L 272.369 201.338 273.726 202.543 C 274.473 203.206,275.344 204.011,275.664 204.332 C 277.025 205.703,277.708 205.959,278.333 205.333 C 278.904 204.763,278.757 204.278,277.717 203.305 C 277.195 202.816,276.527 202.192,276.234 201.917 C 274.803 200.578,272.796 198.759,272.545 198.576 C 272.317 198.409,272.726 198.350,274.758 198.255 C 276.128 198.191,277.700 198.113,278.250 198.082 C 284.026 197.752,283.833 197.797,283.833 196.759 C 283.833 195.636,283.935 195.646,275.750 196.007 M179.083 201.620 C 176.640 202.213,177.022 205.833,179.529 205.833 C 181.020 205.833,181.667 205.180,181.667 203.672 C 181.667 202.519,180.449 201.311,179.500 201.520 C 179.454 201.530,179.267 201.575,179.083 201.620 M217.583 201.618 C 215.849 202.048,215.288 204.596,216.731 205.488 C 217.666 206.066,218.896 205.971,219.600 205.267 C 221.093 203.773,219.623 201.113,217.583 201.618 M125.498 205.125 C 125.496 205.517,124.853 208.719,124.568 209.760 C 124.463 210.141,125.593 210.640,125.889 210.344 C 126.067 210.167,126.435 208.657,126.665 207.167 C 126.757 206.571,126.871 205.852,126.919 205.569 C 126.999 205.090,126.960 205.041,126.358 204.860 C 125.495 204.602,125.500 204.600,125.498 205.125 M130.231 207.792 C 130.041 208.685,129.731 209.887,129.542 210.463 L 129.199 211.509 129.786 211.754 C 130.612 212.099,130.615 212.098,130.897 211.125 C 132.100 206.976,132.060 206.167,130.651 206.167 C 130.610 206.167,130.421 206.898,130.231 207.792 M116.997 207.999 C 116.332 208.585,116.287 208.669,116.583 208.757 C 116.778 208.816,117.228 209.420,117.667 210.214 C 119.969 214.378,123.151 217.391,127.250 219.290 C 129.423 220.296,129.550 220.311,129.979 219.618 C 130.464 218.833,130.437 218.750,129.625 218.512 C 126.138 217.492,122.421 214.585,119.946 210.942 C 119.562 210.378,118.995 209.429,118.686 208.833 C 117.853 207.230,117.864 207.235,116.997 207.999 M236.482 209.865 C 236.263 209.937,234.846 210.260,233.333 210.582 C 224.167 212.535,225.000 212.286,225.000 213.073 C 225.000 214.089,225.192 214.109,228.376 213.431 C 229.957 213.094,231.362 212.787,231.500 212.749 C 231.637 212.710,233.063 212.406,234.667 212.073 C 237.641 211.457,238.167 211.233,238.167 210.583 C 238.167 209.846,237.459 209.544,236.482 209.865 M267.497 213.559 C 264.862 214.416,263.295 217.162,263.761 220.103 C 263.895 220.947,263.876 221.124,263.625 221.375 C 262.921 222.079,263.402 223.023,264.583 223.256 C 264.950 223.328,265.325 223.405,265.417 223.428 C 265.508 223.450,266.258 223.596,267.083 223.752 C 267.908 223.908,269.856 224.290,271.411 224.601 C 275.281 225.375,275.841 225.324,275.828 224.196 C 275.816 223.224,275.724 223.183,272.000 222.505 C 270.487 222.230,269.063 221.963,268.833 221.911 C 268.604 221.859,267.995 221.734,267.479 221.633 C 265.120 221.170,265.286 217.048,267.714 215.809 C 268.617 215.348,269.630 215.396,273.250 216.072 C 276.997 216.770,276.681 216.750,277.135 216.327 C 278.103 215.426,277.493 214.718,275.408 214.321 C 274.496 214.147,273.000 213.858,272.083 213.677 C 270.241 213.314,268.397 213.266,267.497 213.559 M132.667 214.802 C 132.667 214.877,132.133 215.517,131.480 216.225 C 130.328 217.476,130.302 217.522,130.589 217.840 C 131.050 218.348,131.234 218.254,132.405 216.911 C 133.584 215.559,133.662 215.365,133.195 214.942 C 132.863 214.642,132.667 214.590,132.667 214.802 M235.917 217.166 C 234.358 217.510,232.033 218.024,230.750 218.308 C 229.467 218.592,228.093 218.874,227.697 218.935 C 226.834 219.068,226.500 219.363,226.500 219.991 C 226.500 220.614,226.866 220.892,227.539 220.780 C 228.221 220.666,233.417 219.533,233.417 219.498 C 233.417 219.484,233.567 219.448,233.750 219.419 C 234.709 219.264,238.969 218.300,239.292 218.165 C 239.939 217.893,239.595 216.431,238.904 216.520 C 238.819 216.531,237.475 216.821,235.917 217.166 M133.890 217.625 C 133.704 217.877,133.155 218.517,132.671 219.047 C 131.816 219.982,131.799 220.019,132.088 220.338 C 132.489 220.782,132.526 220.770,133.303 219.958 C 135.090 218.092,135.198 217.898,134.695 217.442 C 134.299 217.084,134.288 217.087,133.890 217.625 M129.708 223.720 C 129.410 223.809,129.167 223.977,129.167 224.093 C 129.167 224.326,130.681 228.355,131.168 229.417 C 131.818 230.835,132.172 230.621,127.265 231.767 C 124.265 232.468,124.389 232.487,123.911 231.250 C 123.699 230.700,123.253 229.537,122.920 228.667 C 121.935 226.090,121.612 225.333,121.494 225.333 C 121.433 225.333,121.156 225.412,120.879 225.509 L 120.375 225.685 120.951 227.217 C 121.268 228.060,121.671 229.058,121.847 229.435 C 122.023 229.812,122.167 230.172,122.167 230.236 C 122.167 230.342,123.901 234.920,124.717 236.968 C 125.039 237.776,125.106 237.843,125.492 237.746 C 126.316 237.539,126.320 237.431,125.571 235.543 C 125.180 234.557,124.885 233.726,124.915 233.696 C 124.945 233.666,125.971 233.425,127.193 233.160 C 128.416 232.896,130.054 232.528,130.833 232.344 C 131.612 232.159,132.456 232.006,132.708 232.004 C 133.204 232.000,133.368 231.199,133.009 230.539 C 132.922 230.380,132.666 229.762,132.440 229.167 C 131.524 226.752,130.485 224.068,130.371 223.821 C 130.273 223.609,130.146 223.590,129.708 223.720 M250.370 238.259 C 249.597 238.801,249.858 239.509,251.167 240.417 C 251.671 240.766,252.121 241.101,252.167 241.160 C 252.213 241.219,252.533 241.440,252.879 241.650 C 253.226 241.861,253.601 242.119,253.713 242.225 C 253.825 242.330,254.206 242.633,254.560 242.898 L 255.204 243.379 254.427 243.648 C 250.427 245.032,249.324 250.204,252.317 253.538 C 256.349 258.030,263.338 256.235,263.791 250.592 C 263.871 249.594,263.887 249.565,264.312 249.626 C 265.394 249.779,265.824 248.611,264.975 247.823 C 264.187 247.091,264.048 246.984,262.833 246.170 C 262.237 245.771,261.150 245.002,260.417 244.460 C 259.683 243.919,258.933 243.366,258.750 243.232 C 258.040 242.713,254.895 240.473,254.500 240.204 C 254.271 240.049,253.496 239.489,252.777 238.961 C 251.409 237.955,250.983 237.830,250.370 238.259 M133.000 239.000 C 133.000 239.367,132.981 239.723,132.958 239.792 C 132.891 239.994,135.437 240.450,137.390 240.586 L 139.197 240.712 139.684 241.397 C 139.952 241.775,140.277 242.233,140.408 242.417 C 143.285 246.467,143.156 246.066,141.690 246.400 C 137.351 247.387,133.251 246.971,129.522 245.164 C 128.302 244.573,128.398 244.551,128.192 245.468 C 128.034 246.173,128.037 246.179,128.642 246.485 C 132.559 248.467,137.219 248.958,142.083 247.899 C 143.183 247.660,144.298 247.425,144.561 247.377 C 145.106 247.278,145.133 246.364,144.610 245.733 C 144.361 245.433,143.929 244.834,141.854 241.914 C 141.361 241.221,140.997 240.614,141.045 240.566 C 141.252 240.359,143.235 240.192,143.542 240.356 C 144.026 240.615,144.044 240.464,143.655 239.424 C 143.345 238.595,143.252 238.483,142.941 238.569 C 141.041 239.092,135.957 239.109,134.167 238.599 C 132.955 238.253,133.000 238.237,133.000 239.000 M258.781 246.018 C 261.318 247.469,262.229 249.535,261.255 251.627 C 259.952 254.427,256.757 254.775,254.229 252.392 C 250.565 248.937,254.429 243.528,258.781 246.018 M242.064 257.482 C 239.006 258.268,236.780 261.462,237.319 264.289 C 237.717 266.371,239.484 265.924,239.445 263.750 C 239.387 260.544,242.357 258.660,245.199 260.100 C 246.147 260.580,246.167 260.666,245.458 261.208 C 244.861 261.665,240.876 264.965,239.625 266.038 C 238.554 266.958,238.548 267.456,239.596 268.535 C 242.818 271.849,247.929 271.013,249.782 266.870 C 251.754 262.461,246.684 256.295,242.064 257.482 M248.065 264.667 C 248.066 267.465,245.118 269.230,242.463 268.021 C 241.469 267.568,241.348 267.359,241.848 266.956 C 242.069 266.779,242.486 266.435,242.774 266.192 C 243.063 265.949,243.805 265.337,244.423 264.833 C 245.042 264.329,245.969 263.560,246.482 263.125 L 247.417 262.332 247.741 263.041 C 247.936 263.469,248.065 264.114,248.065 264.667 M227.169 267.365 C 226.100 267.761,226.238 269.125,227.375 269.397 C 227.832 269.506,228.031 269.790,228.822 271.465 C 229.008 271.858,229.726 273.230,230.418 274.514 C 231.612 276.730,231.753 277.167,231.273 277.167 C 230.628 277.167,229.500 278.166,229.500 278.737 C 229.500 279.889,230.362 280.102,231.783 279.300 C 232.388 278.959,232.751 278.836,232.792 278.960 C 232.828 279.066,233.163 279.737,233.538 280.451 C 233.912 281.166,234.366 282.050,234.545 282.417 C 235.178 283.710,236.071 284.084,236.746 283.338 C 237.165 282.875,237.031 282.426,235.758 280.018 C 234.471 277.584,234.503 277.768,235.308 277.446 C 236.451 276.989,236.608 275.723,235.571 275.329 C 235.260 275.210,234.984 275.260,234.418 275.535 C 234.009 275.734,233.646 275.863,233.611 275.823 C 233.577 275.783,232.670 274.100,231.595 272.083 C 229.200 267.586,228.523 266.864,227.169 267.365 M214.634 272.422 C 214.585 272.471,214.394 272.540,214.210 272.575 C 212.242 272.954,210.332 274.935,210.334 276.594 C 210.338 279.339,212.182 280.538,215.897 280.213 C 218.281 280.003,218.894 280.122,219.145 280.843 C 219.753 282.588,216.370 284.120,214.750 282.833 C 213.363 281.731,212.014 282.782,213.014 284.186 C 214.476 286.240,219.203 285.643,220.830 283.200 C 221.972 281.484,221.450 279.291,219.667 278.312 C 219.349 278.137,218.548 278.093,216.284 278.125 L 213.318 278.167 212.909 277.726 C 211.188 275.869,215.109 273.508,217.601 274.901 C 219.238 275.816,220.422 274.630,219.125 273.374 C 218.238 272.516,215.187 271.869,214.634 272.422 " stroke="none" fill="#f4543c" fill-rule="evenodd"></path><path id="path1" d="M228.576 178.333 C 228.576 181.954,228.598 183.435,228.625 181.625 C 228.652 179.815,228.652 176.852,228.625 175.042 C 228.598 173.231,228.576 174.713,228.576 178.333 " stroke="none" fill="#f8543c" fill-rule="evenodd"></path><path id="path2" d="M228.576 178.333 C 228.576 181.954,228.598 183.435,228.625 181.625 C 228.652 179.815,228.652 176.852,228.625 175.042 C 228.598 173.231,228.576 174.713,228.576 178.333 " stroke="none" fill="#f8543c" fill-rule="evenodd"></path><path id="path3" d="M228.576 178.333 C 228.576 181.954,228.598 183.435,228.625 181.625 C 228.652 179.815,228.652 176.852,228.625 175.042 C 228.598 173.231,228.576 174.713,228.576 178.333 " stroke="none" fill="#f8543c" fill-rule="evenodd"></path><path id="path4" d="M228.576 178.333 C 228.576 181.954,228.598 183.435,228.625 181.625 C 228.652 179.815,228.652 176.852,228.625 175.042 C 228.598 173.231,228.576 174.713,228.576 178.333 " stroke="none" fill="#f8543c" fill-rule="evenodd"></path></g></svg>